<mxfile host="app.diagrams.net" agent="Mozilla/5.0 (Windows NT 10.0; Win64; x64) AppleWebKit/537.36 (KHTML, like Gecko) Chrome/136.0.0.0 Safari/537.36" version="27.0.5">
  <diagram name="Trang-1" id="8P37S3St6V8EzLrGUWb9">
    <mxGraphModel grid="1" page="1" gridSize="10" guides="1" tooltips="1" connect="1" arrows="1" fold="1" pageScale="1" pageWidth="827" pageHeight="1169" math="0" shadow="0">
      <root>
        <mxCell id="0" />
        <mxCell id="1" parent="0" />
        <mxCell id="5evPD5gkj50zPaL7sM6B-1" value="Actor" style="shape=umlActor;verticalLabelPosition=bottom;verticalAlign=top;html=1;outlineConnect=0;" vertex="1" parent="1">
          <mxGeometry x="110" y="200" width="30" height="60" as="geometry" />
        </mxCell>
        <mxCell id="5evPD5gkj50zPaL7sM6B-3" value="Actor" style="shape=umlActor;verticalLabelPosition=bottom;verticalAlign=top;html=1;outlineConnect=0;" vertex="1" parent="1">
          <mxGeometry x="740" y="300" width="30" height="60" as="geometry" />
        </mxCell>
        <mxCell id="5evPD5gkj50zPaL7sM6B-4" value="search products" style="ellipse;whiteSpace=wrap;html=1;" vertex="1" parent="1">
          <mxGeometry x="270" y="110" width="120" height="80" as="geometry" />
        </mxCell>
        <mxCell id="5evPD5gkj50zPaL7sM6B-5" value="filter products" style="ellipse;whiteSpace=wrap;html=1;" vertex="1" parent="1">
          <mxGeometry x="270" y="240" width="120" height="80" as="geometry" />
        </mxCell>
        <mxCell id="5evPD5gkj50zPaL7sM6B-6" value="add product to wishlists" style="ellipse;whiteSpace=wrap;html=1;" vertex="1" parent="1">
          <mxGeometry x="270" y="380" width="120" height="80" as="geometry" />
        </mxCell>
        <mxCell id="5evPD5gkj50zPaL7sM6B-7" value="view products details" style="ellipse;whiteSpace=wrap;html=1;" vertex="1" parent="1">
          <mxGeometry x="270" y="510" width="120" height="80" as="geometry" />
        </mxCell>
        <mxCell id="5evPD5gkj50zPaL7sM6B-8" value="post review" style="ellipse;whiteSpace=wrap;html=1;" vertex="1" parent="1">
          <mxGeometry x="270" y="640" width="120" height="80" as="geometry" />
        </mxCell>
        <mxCell id="5evPD5gkj50zPaL7sM6B-9" value="view products" style="ellipse;whiteSpace=wrap;html=1;" vertex="1" parent="1">
          <mxGeometry x="270" width="120" height="80" as="geometry" />
        </mxCell>
        <mxCell id="5evPD5gkj50zPaL7sM6B-10" value="add products" style="ellipse;whiteSpace=wrap;html=1;" vertex="1" parent="1">
          <mxGeometry x="400" y="210" width="120" height="80" as="geometry" />
        </mxCell>
        <mxCell id="5evPD5gkj50zPaL7sM6B-11" value="update products" style="ellipse;whiteSpace=wrap;html=1;" vertex="1" parent="1">
          <mxGeometry x="500" y="330" width="120" height="80" as="geometry" />
        </mxCell>
        <mxCell id="5evPD5gkj50zPaL7sM6B-12" value="delete products" style="ellipse;whiteSpace=wrap;html=1;" vertex="1" parent="1">
          <mxGeometry x="490" y="470" width="120" height="80" as="geometry" />
        </mxCell>
        <mxCell id="5evPD5gkj50zPaL7sM6B-13" value="" style="endArrow=none;html=1;rounded=0;" edge="1" parent="1" target="5evPD5gkj50zPaL7sM6B-9">
          <mxGeometry width="50" height="50" relative="1" as="geometry">
            <mxPoint x="140" y="230" as="sourcePoint" />
            <mxPoint x="190" y="180" as="targetPoint" />
          </mxGeometry>
        </mxCell>
        <mxCell id="5evPD5gkj50zPaL7sM6B-15" value="" style="endArrow=none;html=1;rounded=0;entryX=0.042;entryY=0.703;entryDx=0;entryDy=0;entryPerimeter=0;" edge="1" parent="1" target="5evPD5gkj50zPaL7sM6B-4">
          <mxGeometry width="50" height="50" relative="1" as="geometry">
            <mxPoint x="140" y="230" as="sourcePoint" />
            <mxPoint x="440" y="360" as="targetPoint" />
          </mxGeometry>
        </mxCell>
        <mxCell id="5evPD5gkj50zPaL7sM6B-16" value="" style="endArrow=none;html=1;rounded=0;entryX=0.017;entryY=0.616;entryDx=0;entryDy=0;entryPerimeter=0;exitX=0;exitY=0.5;exitDx=0;exitDy=0;" edge="1" parent="1" source="5evPD5gkj50zPaL7sM6B-7" target="5evPD5gkj50zPaL7sM6B-5">
          <mxGeometry width="50" height="50" relative="1" as="geometry">
            <mxPoint x="390" y="410" as="sourcePoint" />
            <mxPoint x="440" y="360" as="targetPoint" />
            <Array as="points">
              <mxPoint x="140" y="230" />
            </Array>
          </mxGeometry>
        </mxCell>
        <mxCell id="5evPD5gkj50zPaL7sM6B-17" value="" style="endArrow=none;html=1;rounded=0;exitX=0;exitY=0.625;exitDx=0;exitDy=0;exitPerimeter=0;" edge="1" parent="1" source="5evPD5gkj50zPaL7sM6B-9" target="5evPD5gkj50zPaL7sM6B-2">
          <mxGeometry width="50" height="50" relative="1" as="geometry">
            <mxPoint x="390" y="410" as="sourcePoint" />
            <mxPoint x="440" y="360" as="targetPoint" />
          </mxGeometry>
        </mxCell>
        <mxCell id="5evPD5gkj50zPaL7sM6B-18" value="" style="endArrow=none;html=1;rounded=0;exitX=0.75;exitY=0.1;exitDx=0;exitDy=0;exitPerimeter=0;" edge="1" parent="1" source="5evPD5gkj50zPaL7sM6B-2" target="5evPD5gkj50zPaL7sM6B-4">
          <mxGeometry width="50" height="50" relative="1" as="geometry">
            <mxPoint x="390" y="410" as="sourcePoint" />
            <mxPoint x="440" y="360" as="targetPoint" />
          </mxGeometry>
        </mxCell>
        <mxCell id="5evPD5gkj50zPaL7sM6B-19" value="" style="endArrow=none;html=1;rounded=0;exitX=0.75;exitY=0.1;exitDx=0;exitDy=0;exitPerimeter=0;" edge="1" parent="1" source="5evPD5gkj50zPaL7sM6B-2" target="5evPD5gkj50zPaL7sM6B-5">
          <mxGeometry width="50" height="50" relative="1" as="geometry">
            <mxPoint x="390" y="410" as="sourcePoint" />
            <mxPoint x="440" y="360" as="targetPoint" />
          </mxGeometry>
        </mxCell>
        <mxCell id="5evPD5gkj50zPaL7sM6B-20" value="" style="endArrow=none;html=1;rounded=0;entryX=0;entryY=0.5;entryDx=0;entryDy=0;" edge="1" parent="1" source="5evPD5gkj50zPaL7sM6B-2" target="5evPD5gkj50zPaL7sM6B-6">
          <mxGeometry width="50" height="50" relative="1" as="geometry">
            <mxPoint x="143" y="496" as="sourcePoint" />
            <mxPoint x="308" y="324" as="targetPoint" />
            <Array as="points">
              <mxPoint x="130" y="490" />
            </Array>
          </mxGeometry>
        </mxCell>
        <mxCell id="5evPD5gkj50zPaL7sM6B-21" value="" style="endArrow=none;html=1;rounded=0;entryX=0;entryY=0.5;entryDx=0;entryDy=0;" edge="1" parent="1" source="5evPD5gkj50zPaL7sM6B-2" target="5evPD5gkj50zPaL7sM6B-7">
          <mxGeometry width="50" height="50" relative="1" as="geometry">
            <mxPoint x="130" y="490" as="sourcePoint" />
            <mxPoint x="318" y="334" as="targetPoint" />
          </mxGeometry>
        </mxCell>
        <mxCell id="5evPD5gkj50zPaL7sM6B-22" value="" style="endArrow=none;html=1;rounded=0;entryX=0.042;entryY=0.603;entryDx=0;entryDy=0;entryPerimeter=0;" edge="1" parent="1" source="5evPD5gkj50zPaL7sM6B-2" target="5evPD5gkj50zPaL7sM6B-8">
          <mxGeometry width="50" height="50" relative="1" as="geometry">
            <mxPoint x="130" y="480" as="sourcePoint" />
            <mxPoint x="328" y="344" as="targetPoint" />
          </mxGeometry>
        </mxCell>
        <mxCell id="5evPD5gkj50zPaL7sM6B-23" value="" style="endArrow=none;html=1;rounded=0;exitX=1;exitY=0.5;exitDx=0;exitDy=0;" edge="1" parent="1" source="5evPD5gkj50zPaL7sM6B-10">
          <mxGeometry width="50" height="50" relative="1" as="geometry">
            <mxPoint x="390" y="410" as="sourcePoint" />
            <mxPoint x="740" y="320" as="targetPoint" />
          </mxGeometry>
        </mxCell>
        <mxCell id="5evPD5gkj50zPaL7sM6B-24" value="" style="endArrow=none;html=1;rounded=0;exitX=1;exitY=0.5;exitDx=0;exitDy=0;exitPerimeter=0;entryX=0;entryY=0.3333333333333333;entryDx=0;entryDy=0;entryPerimeter=0;" edge="1" parent="1" source="5evPD5gkj50zPaL7sM6B-11" target="5evPD5gkj50zPaL7sM6B-3">
          <mxGeometry width="50" height="50" relative="1" as="geometry">
            <mxPoint x="173" y="526" as="sourcePoint" />
            <mxPoint x="338" y="354" as="targetPoint" />
          </mxGeometry>
        </mxCell>
        <mxCell id="5evPD5gkj50zPaL7sM6B-25" value="" style="endArrow=none;html=1;rounded=0;exitX=0.967;exitY=0.378;exitDx=0;exitDy=0;exitPerimeter=0;" edge="1" parent="1" source="5evPD5gkj50zPaL7sM6B-12">
          <mxGeometry width="50" height="50" relative="1" as="geometry">
            <mxPoint x="620" y="500" as="sourcePoint" />
            <mxPoint x="740" y="320" as="targetPoint" />
          </mxGeometry>
        </mxCell>
        <mxCell id="5evPD5gkj50zPaL7sM6B-26" value="" style="endArrow=none;html=1;rounded=0;exitX=0;exitY=0.3333333333333333;exitDx=0;exitDy=0;exitPerimeter=0;entryX=1;entryY=0.5;entryDx=0;entryDy=0;" edge="1" parent="1" source="5evPD5gkj50zPaL7sM6B-3" target="5evPD5gkj50zPaL7sM6B-9">
          <mxGeometry width="50" height="50" relative="1" as="geometry">
            <mxPoint x="193" y="546" as="sourcePoint" />
            <mxPoint x="358" y="374" as="targetPoint" />
          </mxGeometry>
        </mxCell>
        <mxCell id="5evPD5gkj50zPaL7sM6B-27" value="" style="endArrow=none;html=1;rounded=0;exitX=0.5;exitY=0.5;exitDx=0;exitDy=0;exitPerimeter=0;entryX=1.017;entryY=0.616;entryDx=0;entryDy=0;entryPerimeter=0;" edge="1" parent="1" source="5evPD5gkj50zPaL7sM6B-3" target="5evPD5gkj50zPaL7sM6B-4">
          <mxGeometry width="50" height="50" relative="1" as="geometry">
            <mxPoint x="203" y="556" as="sourcePoint" />
            <mxPoint x="368" y="384" as="targetPoint" />
          </mxGeometry>
        </mxCell>
        <mxCell id="5evPD5gkj50zPaL7sM6B-28" value="" style="endArrow=none;html=1;rounded=0;entryX=0.967;entryY=0.653;entryDx=0;entryDy=0;entryPerimeter=0;" edge="1" parent="1" target="5evPD5gkj50zPaL7sM6B-5">
          <mxGeometry width="50" height="50" relative="1" as="geometry">
            <mxPoint x="730" y="320" as="sourcePoint" />
            <mxPoint x="378" y="394" as="targetPoint" />
          </mxGeometry>
        </mxCell>
        <mxCell id="5evPD5gkj50zPaL7sM6B-30" value="" style="endArrow=none;html=1;rounded=0;exitX=1.017;exitY=0.641;exitDx=0;exitDy=0;exitPerimeter=0;" edge="1" parent="1" source="5evPD5gkj50zPaL7sM6B-7">
          <mxGeometry width="50" height="50" relative="1" as="geometry">
            <mxPoint x="233" y="586" as="sourcePoint" />
            <mxPoint x="730" y="320" as="targetPoint" />
          </mxGeometry>
        </mxCell>
        <mxCell id="5evPD5gkj50zPaL7sM6B-33" value="" style="endArrow=none;dashed=1;html=1;rounded=0;exitX=0.5;exitY=1;exitDx=0;exitDy=0;" edge="1" parent="1" source="5evPD5gkj50zPaL7sM6B-6" target="5evPD5gkj50zPaL7sM6B-7">
          <mxGeometry width="50" height="50" relative="1" as="geometry">
            <mxPoint x="390" y="410" as="sourcePoint" />
            <mxPoint x="330" y="500" as="targetPoint" />
          </mxGeometry>
        </mxCell>
        <mxCell id="5evPD5gkj50zPaL7sM6B-35" value="extend" style="edgeLabel;html=1;align=center;verticalAlign=middle;resizable=0;points=[];" connectable="0" vertex="1" parent="5evPD5gkj50zPaL7sM6B-33">
          <mxGeometry x="-0.36" relative="1" as="geometry">
            <mxPoint as="offset" />
          </mxGeometry>
        </mxCell>
        <mxCell id="5evPD5gkj50zPaL7sM6B-34" value="" style="endArrow=classic;html=1;rounded=0;entryX=0.5;entryY=0;entryDx=0;entryDy=0;" edge="1" parent="1" target="5evPD5gkj50zPaL7sM6B-7">
          <mxGeometry width="50" height="50" relative="1" as="geometry">
            <mxPoint x="330" y="490" as="sourcePoint" />
            <mxPoint x="440" y="360" as="targetPoint" />
          </mxGeometry>
        </mxCell>
        <mxCell id="5evPD5gkj50zPaL7sM6B-2" value="Actor" style="shape=umlActor;verticalLabelPosition=bottom;verticalAlign=top;html=1;outlineConnect=0;" vertex="1" parent="1">
          <mxGeometry x="55" y="460" width="30" height="60" as="geometry" />
        </mxCell>
        <mxCell id="5evPD5gkj50zPaL7sM6B-42" value="admin" style="text;html=1;align=center;verticalAlign=middle;resizable=0;points=[];autosize=1;strokeColor=none;fillColor=none;" vertex="1" parent="1">
          <mxGeometry x="730" y="380" width="60" height="30" as="geometry" />
        </mxCell>
        <mxCell id="5evPD5gkj50zPaL7sM6B-43" value="guest users" style="text;html=1;align=center;verticalAlign=middle;resizable=0;points=[];autosize=1;strokeColor=none;fillColor=none;" vertex="1" parent="1">
          <mxGeometry x="75" y="178" width="90" height="30" as="geometry" />
        </mxCell>
        <mxCell id="5evPD5gkj50zPaL7sM6B-44" value="registered users" style="text;html=1;align=center;verticalAlign=middle;resizable=0;points=[];autosize=1;strokeColor=none;fillColor=none;" vertex="1" parent="1">
          <mxGeometry x="55" y="535" width="110" height="30" as="geometry" />
        </mxCell>
      </root>
    </mxGraphModel>
  </diagram>
</mxfile>
